<?xml version="1.0" encoding="iso-8859-1"?>
<!-- Generator: Adobe Illustrator 19.0.0, SVG Export Plug-In . SVG Version: 6.00 Build 0)  -->
<svg version="1.1" id="Layer_1" xmlns="http://www.w3.org/2000/svg" xmlns:xlink="http://www.w3.org/1999/xlink" x="0px" y="0px"
	 viewBox="0 0 512 512" style="enable-background:new 0 0 512 512;" xml:space="preserve">
<rect x="380.948" y="274.087" style="fill:#F7B239;" width="103.625" height="118.89"/>
<rect x="59.013" y="208.016" style="fill:#2BA5F7;" width="347.338" height="251.056"/>
<rect x="59.013" y="263.428" style="fill:#2197D8;" width="30.01" height="195.643"/>
<path style="fill:#2BA5F7;" d="M512,243.621v179.833h-33.835c-10.481,0-18.996-8.515-18.996-18.996v-11.476v-118.89v-11.476
	c0-10.493,8.515-18.996,18.996-18.996H512z"/>
<path style="fill:#2197D8;" d="M459.169,374.851v18.131v11.476c0,10.481,8.515,18.996,18.996,18.996H512v-29.607h-33.835
	C467.684,393.847,459.169,385.332,459.169,374.851z"/>
<polygon style="fill:#E09B2D;" points="438.385,274.093 438.385,361.718 406.35,361.718 406.35,392.983 438.385,392.983 
	459.169,392.983 459.169,361.718 459.169,274.093 "/>
<path style="fill:#666666;" d="M285.648,208.01c-5.495-10.872-8.586-23.153-8.586-36.156c0-44.339,35.931-80.282,80.271-80.282
	c44.328,0,80.271,35.943,80.271,80.282c0,25.877-12.245,48.887-31.253,63.56c-13.56,10.481-30.554,16.71-49.017,16.71
	C325.997,252.124,298.865,234.183,285.648,208.01z"/>
<path style="fill:#2197D8;" d="M405.509,236.054c-4.323,5.767-9.427,10.943-15.147,15.348c-13.56,10.481-30.554,16.71-49.017,16.71
	c-31.336,0-58.468-17.942-71.685-44.114c-2.546-5.045-4.583-10.398-6.028-15.988h22.016c13.217,26.173,40.348,44.114,71.685,44.114
	C375.417,252.124,392.092,246.144,405.509,236.054z"/>
<rect x="125.084" y="343.912" style="fill:#666666;" width="215.196" height="56.632"/>
<rect x="125.084" y="343.912" style="fill:#4D4D4D;" width="26.895" height="56.632"/>
<g>
	<path style="fill:#F95428;" d="M304.23,286.492c9.806,0,17.752,7.947,17.752,17.764c0,9.806-7.947,17.764-17.752,17.764
		c-9.818,0-17.764-7.958-17.764-17.764C286.466,294.439,294.412,286.492,304.23,286.492z"/>
	<path style="fill:#F95428;" d="M240.279,286.492c9.806,0,17.764,7.947,17.764,17.764c0,9.806-7.958,17.764-17.764,17.764
		c-9.818,0-17.764-7.958-17.764-17.764C222.514,294.439,230.461,286.492,240.279,286.492z"/>
</g>
<path style="fill:#666666;" d="M237.851,171.854c0,12.613-1.966,24.751-5.602,36.156c-15.301,47.999-60.256,82.758-113.324,82.758
	c-21.85,0-42.314-5.886-59.913-16.177C23.709,253.972,0,215.684,0,171.854c0-65.68,53.245-118.925,118.925-118.925
	S237.851,106.174,237.851,171.854z"/>
<path style="fill:#F95428;" d="M118.925,136.515c19.517,0,35.339,15.822,35.339,35.339c0,19.505-15.822,35.327-35.339,35.327
	c-19.505,0-35.327-15.822-35.327-35.327C83.598,152.337,99.42,136.515,118.925,136.515z"/>
<path style="fill:#E54728;" d="M118.925,136.515c-4.601,0-8.992,0.889-13.024,2.492c13.066,5.188,22.308,17.935,22.308,32.847
	c0,14.904-9.243,27.648-22.308,32.837c4.032,1.601,8.423,2.492,13.024,2.492c19.517,0,35.339-15.822,35.339-35.327
	C154.264,152.337,138.442,136.515,118.925,136.515z"/>
<g>
	<path style="fill:#4D4D4D;" d="M163.644,136.018c-2.273,0-4.546-0.867-6.281-2.602c-3.469-3.469-3.469-9.093,0-12.56l20.026-20.026
		c3.47-3.469,9.093-3.469,12.562,0c3.469,3.469,3.469,9.093,0,12.56l-20.026,20.026C168.19,135.151,165.917,136.018,163.644,136.018
		z"/>
	<path style="fill:#4D4D4D;" d="M54.193,245.469c-2.273,0-4.544-0.866-6.279-2.6c-3.47-3.468-3.471-9.092-0.004-12.56l20.014-20.026
		c3.466-3.47,9.091-3.472,12.56-0.004c3.47,3.468,3.471,9.092,0.004,12.56l-20.014,20.026
		C58.742,244.601,56.466,245.469,54.193,245.469z"/>
	<path style="fill:#4D4D4D;" d="M183.67,245.469c-2.273,0-4.546-0.867-6.281-2.602l-20.026-20.026c-3.469-3.469-3.469-9.092,0-12.56
		c3.47-3.469,9.093-3.469,12.562,0l20.026,20.026c3.469,3.469,3.469,9.092,0,12.56C188.217,244.601,185.943,245.469,183.67,245.469z
		"/>
	<path style="fill:#4D4D4D;" d="M74.207,136.018c-2.274,0-4.548-0.867-6.283-2.603L47.91,113.388
		c-3.468-3.47-3.466-9.094,0.004-12.56c3.469-3.468,9.093-3.468,12.56,0.004l20.014,20.026c3.468,3.47,3.466,9.094-0.004,12.56
		C78.752,135.151,76.48,136.018,74.207,136.018z"/>
	<path style="fill:#4D4D4D;" d="M389.534,212.937c-2.273,0-4.546-0.867-6.281-2.602l-9.96-9.96c-3.469-3.469-3.469-9.093,0-12.56
		c3.47-3.469,9.093-3.469,12.562,0l9.96,9.96c3.469,3.469,3.469,9.093,0,12.56C394.08,212.07,391.806,212.937,389.534,212.937z"/>
	<path style="fill:#4D4D4D;" d="M335.092,158.483c-2.273,0-4.546-0.867-6.281-2.602l-9.96-9.96c-3.469-3.469-3.469-9.093,0-12.56
		c3.47-3.469,9.093-3.469,12.562,0l9.96,9.96c3.469,3.469,3.469,9.093,0,12.56C339.639,157.616,337.365,158.483,335.092,158.483z"/>
	<path style="fill:#4D4D4D;" d="M325.132,212.937c-2.273,0-4.546-0.867-6.281-2.602c-3.469-3.469-3.469-9.093,0-12.56l9.96-9.96
		c3.47-3.469,9.093-3.469,12.562,0c3.469,3.469,3.469,9.093,0,12.56l-9.96,9.96C329.679,212.07,327.405,212.937,325.132,212.937z"/>
	<path style="fill:#4D4D4D;" d="M379.574,158.483c-2.273,0-4.546-0.867-6.281-2.602c-3.469-3.469-3.469-9.093,0-12.56l9.96-9.96
		c3.47-3.469,9.093-3.469,12.562,0c3.469,3.469,3.469,9.093,0,12.56l-9.96,9.96C384.12,157.616,381.846,158.483,379.574,158.483z"/>
</g>
<circle style="fill:#F95428;" cx="357.333" cy="171.86" r="8.882"/>
<g>
</g>
<g>
</g>
<g>
</g>
<g>
</g>
<g>
</g>
<g>
</g>
<g>
</g>
<g>
</g>
<g>
</g>
<g>
</g>
<g>
</g>
<g>
</g>
<g>
</g>
<g>
</g>
<g>
</g>
</svg>
