<?xml version="1.0" encoding="iso-8859-1"?>
<!-- Generator: Adobe Illustrator 19.0.0, SVG Export Plug-In . SVG Version: 6.00 Build 0)  -->
<svg version="1.1" id="Layer_1" xmlns="http://www.w3.org/2000/svg" xmlns:xlink="http://www.w3.org/1999/xlink" x="0px" y="0px"
	 viewBox="0 0 512 512" style="enable-background:new 0 0 512 512;" xml:space="preserve">
<path style="fill:#E4EAF6;" d="M52.966,361.931v-220.69H26.483c-4.867,0-8.828,3.96-8.828,8.828v282.483
	c0,4.867,3.96,8.828,8.828,8.828h388.414c4.867,0,8.828-3.96,8.828-8.828v-26.483H97.103
	C72.727,406.069,52.966,386.308,52.966,361.931z"/>
<path style="fill:#CFD7E8;" d="M97.103,388.414c-14.626,0-26.483-11.857-26.483-26.483v-44.138V141.241H52.966v220.69
	c0,24.377,19.762,44.138,44.138,44.138h326.621v-17.655h-35.31H264.828H97.103z"/>
<path style="fill:#BEC8DC;" d="M423.724,406.069v26.483c0,4.867-3.96,8.828-8.828,8.828H26.483c-4.867,0-8.828-3.96-8.828-8.828
	V150.069c0-4.867,3.96-8.828,8.828-8.828h26.483h17.655v-17.655H52.966H26.483c-2.285,0-4.503,0.289-6.618,0.834
	c-2.115,0.544-4.129,1.343-6.005,2.362c-0.75,0.407-1.479,0.851-2.184,1.326c-2.818,1.903-5.249,4.335-7.154,7.153
	c-0.476,0.704-0.919,1.433-1.326,2.184c-1.02,1.876-1.818,3.89-2.362,6.005C0.289,145.566,0,147.784,0,150.069v282.483
	c0,2.285,0.289,4.503,0.834,6.618c0.544,2.115,1.343,4.128,2.362,6.005c0.407,0.75,0.851,1.479,1.326,2.184
	c1.903,2.817,4.335,5.249,7.154,7.153c0.704,0.476,1.433,0.919,2.184,1.326c1.876,1.02,3.89,1.818,6.005,2.362
	c2.114,0.545,4.332,0.834,6.617,0.834h388.414c2.285,0,4.503-0.289,6.618-0.834c2.115-0.544,4.129-1.343,6.005-2.362
	c0.75-0.407,1.479-0.851,2.184-1.326c2.818-1.903,5.249-4.335,7.154-7.153c0.476-0.704,0.919-1.433,1.326-2.184
	c1.02-1.876,1.819-3.89,2.362-6.005c0.544-2.115,0.834-4.333,0.834-6.618v-26.483v-17.655h-17.655v17.655H423.724z"/>
<g>
	<path style="fill:#B9EBFF;" d="M485.517,52.966h-66.443c19.53,27.42,31.133,60.875,31.133,97.103
		c0,11.018-1.075,21.783-3.102,32.207L512,247.172V79.448C512,64.822,500.143,52.966,485.517,52.966z"/>
	<path style="fill:#B9EBFF;" d="M70.621,317.793l73.26-73.26c-18.372-26.903-29.122-59.427-29.122-94.464
		c0-36.228,11.603-69.684,31.133-97.103H97.103c-14.626,0-26.483,11.857-26.483,26.483v44.138v17.655V317.793z"/>
</g>
<g>
	<path style="fill:#D2F5F0;" d="M388.414,150.069c0,3.135-0.145,6.236-0.412,9.301c10.383-9.715,26.663-9.534,36.792,0.597
		l22.309,22.31c2.028-10.424,3.103-21.19,3.103-32.207c0-36.228-11.603-69.684-31.133-97.103H324.76
		C362.21,69.295,388.414,106.603,388.414,150.069z"/>
	<path style="fill:#D2F5F0;" d="M251.346,251.346l22.31,22.31l18.06-18.06c-3.043,0.263-6.121,0.405-9.233,0.405
		C271.646,256,261.192,254.369,251.346,251.346z"/>
	<path style="fill:#D2F5F0;" d="M114.759,150.069c0,35.037,10.75,67.561,29.122,94.464l31.601-31.601
		c4.626-4.625,10.536-7.166,16.583-7.655c-9.839-16.077-15.512-34.979-15.512-55.209c0-43.466,26.204-80.774,63.654-97.103h-94.314
		C126.361,80.385,114.759,113.841,114.759,150.069z"/>
</g>
<path style="fill:#FCFFDC;" d="M176.552,150.069c0,20.23,5.673,39.132,15.511,55.21c7.474-0.604,15.153,1.938,20.871,7.655
	l38.413,38.413c9.845,3.022,20.299,4.653,31.136,4.653c3.112,0,6.189-0.142,9.233-0.405l95.627-95.628
	c0.212-0.212,0.442-0.393,0.66-0.597c0.267-3.065,0.412-6.166,0.412-9.301c0-43.466-26.204-80.774-63.654-97.103h-84.556
	C202.755,69.295,176.552,106.603,176.552,150.069z M282.483,88.276c34.127,0,61.793,27.666,61.793,61.793
	s-27.666,61.793-61.793,61.793s-61.793-27.666-61.793-61.793S248.355,88.276,282.483,88.276z"/>
<path style="fill:#B4EBBE;" d="M424.796,159.967c-10.13-10.13-26.41-10.311-36.792-0.597c-0.217,0.203-0.448,0.384-0.66,0.597
	l-95.627,95.628l-18.061,18.06l114.759,114.759h35.31h17.655h44.138c14.626,0,26.483-11.857,26.483-26.483V247.172l-64.895-64.895
	L424.796,159.967z"/>
<path style="fill:#A0D778;" d="M212.934,212.932c-5.717-5.717-13.397-8.258-20.871-7.655c-6.046,0.488-11.957,3.029-16.583,7.655
	l-31.601,31.601l-73.259,73.26v44.138c0,14.626,11.857,26.483,26.483,26.483h167.724h123.586L273.655,273.655l-22.31-22.31
	L212.934,212.932z"/>
<path style="fill:#FFF5A5;" d="M220.69,150.069c0,34.127,27.666,61.793,61.793,61.793s61.793-27.666,61.793-61.793
	s-27.666-61.793-61.793-61.793S220.69,115.942,220.69,150.069z M317.793,150.069c0,19.501-15.809,35.31-35.31,35.31
	s-35.31-15.809-35.31-35.31s15.809-35.31,35.31-35.31S317.793,130.568,317.793,150.069z"/>
<circle style="fill:#FFDC69;" cx="282.483" cy="150.069" r="35.31"/>
<g>
</g>
<g>
</g>
<g>
</g>
<g>
</g>
<g>
</g>
<g>
</g>
<g>
</g>
<g>
</g>
<g>
</g>
<g>
</g>
<g>
</g>
<g>
</g>
<g>
</g>
<g>
</g>
<g>
</g>
</svg>
